<svg width="25" height="25" viewBox="0 0 32 32" fill="none" xmlns="http://www.w3.org/2000/svg">
<path d="M31.66 16.36C31.66 15.3067 31.5667 14.3067 31.4067 13.3334H16.34V19.3467H24.9667C24.58 21.32 23.4467 22.9867 21.7667 24.12V28.12H26.9133C29.9267 25.3334 31.66 21.2267 31.66 16.36Z" fill="#4285F4"/>
<path d="M16.34 32C20.66 32 24.2733 30.56 26.9133 28.12L21.7667 24.12C20.3267 25.08 18.5 25.6667 16.34 25.6667C12.1667 25.6667 8.63333 22.8533 7.36667 19.0533H2.06V23.1733C4.68666 28.4 10.0867 32 16.34 32Z" fill="#34A853"/>
<path d="M7.36666 19.0533C7.03333 18.0933 6.86 17.0667 6.86 16C6.86 14.9333 7.04666 13.9067 7.36666 12.9467V8.82666H2.05999C0.966662 10.9867 0.339996 13.4133 0.339996 16C0.339996 18.5867 0.966662 21.0133 2.05999 23.1733L7.36666 19.0533Z" fill="#FBBC05"/>
<path d="M16.34 6.33333C18.7 6.33333 20.8067 7.14667 22.4733 8.73334L27.0333 4.17333C24.2733 1.58667 20.66 0 16.34 0C10.0867 0 4.68666 3.6 2.06 8.82667L7.36667 12.9467C8.63333 9.14667 12.1667 6.33333 16.34 6.33333Z" fill="#EA4335"/>
</svg>
