<svg width="38" height="40" viewBox="0 0 38 40" fill="none" xmlns="http://www.w3.org/2000/svg">
<path d="M26.2027 20L37.0057 9.05484C38.3314 7.71172 38.3314 5.53406 37.0057 4.18984L34.6048 1.75734C33.2791 0.414219 31.1298 0.414219 29.803 1.75734L19 12.7025L8.19699 1.75734C6.87131 0.414219 4.72193 0.414219 3.39517 1.75734L0.994261 4.18984C-0.33142 5.53297 -0.33142 7.71062 0.994261 9.05484L11.7973 20L0.994261 30.9452C-0.33142 32.2883 -0.33142 34.4659 0.994261 35.8102L3.39517 38.2427C4.72085 39.5858 6.87131 39.5858 8.19699 38.2427L19 27.2975L29.803 38.2427C31.1287 39.5858 33.2791 39.5858 34.6048 38.2427L37.0057 35.8102C38.3314 34.467 38.3314 32.2894 37.0057 30.9452L26.2027 20Z" fill="black"/>
</svg>
